<?xml version="1.0" encoding="utf-8"?>
<!-- Generator: Adobe Illustrator 26.0.1, SVG Export Plug-In . SVG Version: 6.00 Build 0)  -->
<svg version="1.1" id="Слой_1" xmlns="http://www.w3.org/2000/svg" xmlns:xlink="http://www.w3.org/1999/xlink" x="0px" y="0px"
	 viewBox="0 0 1600 1200" style="enable-background:new 0 0 1600 1200;" xml:space="preserve">
<style type="text/css">
	.st0{fill:none;stroke:#000000;stroke-width:8;stroke-miterlimit:10;}
	.st1{fill:none;stroke:#000000;stroke-width:8;stroke-linecap:round;stroke-miterlimit:10;}
	.st2{fill:none;stroke:#000000;stroke-width:8;stroke-linecap:round;stroke-linejoin:round;stroke-miterlimit:10;}
</style>
<g>
	<path class="st0" d="M590.8,320.4c12.5-61.7,39.1-115,83.1-158.1c26.2-25.6,59.8-42.3,95.8-48.6c99.9-17.4,183.7,6.1,250.8,71.5
		c35.8,34.9,62.4,78.1,78.6,125.4c42.7,125.2,36.4,225.9-37.7,292.4c-38.7,34.8-89.2,53.2-141.3,53.5
		c-152.3,0.9-256.4-48.4-307.3-153.1C585.2,446.7,578.2,382.2,590.8,320.4z"/>
	<path class="st0" d="M1201.1,457.3c57.8,141.3,123.1,236.5,217.6,241.8c43.8,2.5,84.6-22.4,101.6-62.9
		c33.7-80.3,14.9-220.4-40.5-333.1c-3.8-7.8-10.9-13.6-19.3-15.7c-23.6-5.9-49.1,6.7-76.1,33.8c-5.7,5.7-7.3,14.4-4.1,21.8
		c35.3,79.5,43.5,148.4,14.7,202.7c-1.7,3.3-6.4,3.2-8.1,0c-77.1-144.1-90.2-283.9-170.3-328.2c-26.8-14.8-59.9-11.1-83.4,8.5
		c-22.4,18.6-34.7,42.4-39.6,70"/>
	<path class="st1" d="M1255.3,1055.3c3.1-185.5,1.1-357,18.8-455.3"/>
	<path class="st1" d="M584.8,1055.3c-7.3-164.7,2.4-319.3-13.1-446.5c4.7,141.1-3.7,265.9-53.6,338.7
		c-23.2,33.9-61.6,54.4-102.7,55.7c-133,4.1-185.4-67.3-217-200.5c-3.2-13.3,1.6-27.3,12.3-35.9c27.6-22.4,56.5-40.1,86.4-53.7
		c8.8-4,19.1,0.2,22.7,9.1c21.4,52.6,39.1,87.6,61.9,102.4c22.1,14.4,50.6-5.3,45.1-31.1c-37.8-178.1-39.9-304.4,5.7-361.6
		c16.7-20.9,43.5-31,69.9-27.1c35.5,5.2,66.8,29.9,96.3,63.5"/>
	<path class="st2" d="M738.2,414c1.6,0.5,19.3,43.8,19.3,43.8"/>
	<line class="st2" x1="885.3" y1="372.8" x2="905.7" y2="439.6"/>
	<path class="st2" d="M749.9,439.6c36.2,10.8,95.3-25.6,144.2-38.1"/>
	<path class="st0" d="M660.3,281.8c19.4-8.6,34.5-6.3,45.2,7.3c7.8,10,10.4,23,7.7,35.4c-4.8,21.4-19.9,36-27.5,41.9
		c-1.8,1.4-3.8,2.6-5.9,3.5c-21.5,8.9-36.8,5.6-46.5-9.1c-5.2-7.9-7.4-17.4-6.7-26.8c1-14.5,5.9-28.2,17.5-40.7
		C648.6,288.5,654.2,284.5,660.3,281.8z"/>
	<path class="st0" d="M914.2,197.6c21.7,1.2,36.5,10,46.7,23.8c4.6,6.3,5.9,14.4,3.8,21.9c-5.7,19.9-16.5,33.7-32.9,40.9
		c-8.8,3.9-19,3.3-27.4-1.3c-11.9-6.5-21.3-15-27.1-26.2c-3.9-7.5-4.5-16.3-1.8-24.3c6.2-18.5,16-32.3,32.3-34.6
		C909.9,197.5,912,197.5,914.2,197.6z"/>
	<path class="st2" d="M634.9,264.8l24-24.4c3.5-3.6,8.8-4.9,13.6-3.5l17.2,5.3"/>
	<path class="st2" d="M844.1,189.2l31.9-25.4c5.7-4.5,13.5-5.3,19.9-2l16,8.2"/>
	<path class="st1" d="M1379.1,331.1c-13-20.7-22.9-41.7-27.7-62.9c-1.8-7.8,0-15.9,4.8-22.3c9.2-12.5,19.3-23.2,31.3-30.6
		c5.6-3.4,12.3-4.4,18.6-2.8c10.6,2.8,21,7.2,31.4,13.1c3.8,2.1,6.4,6.1,6.6,10.5c0.2,7.7-6.7,10.5-19.2,9.4l-13.7-4.7
		c-3.5-1.2-7.2,1.6-6.8,5.4c1.2,13.4,0.7,24.1-8.7,31.1"/>
	<path class="st2" d="M1463.4,288.3c0.7-5.2-0.9-11.8-5.1-20c14.6,1.5,24.7-0.9,33.4-4c18-6.6,37.6-7,56-1.8c0.1,0,0.3,0.1,0.4,0.1
		c9.5,2.7,18.6-5.5,16.8-15.2c-2.2-12.3-10.2-21.3-24.3-26.8c-4.3-1.7-9.1-1.9-13.7-0.8c-22.3,0.7-44.4,6.4-66.4,16.4"/>
	<path class="st2" d="M1420.1,217.3c35.7-24,71.3-23.2,107,2.6"/>
	<path class="st2" d="M197.5,792.3c-18.3-20.1-44.3-40.8-78.2-29.7l-63.4,30.5C22.7,807.2,6.2,768,39.5,754
		c29.6-17.1,57.9-29.2,84.5-33.7"/>
	<path class="st2" d="M316.2,716.7c-10.8-27.3-31.8-65.9-46.3-85.7c-9.5-13-26.2-18.6-41.5-13.7c-15.1,4.8-33.2,12.6-51.4,20.6
		c-3.3,1.5-6.8,2.7-10.3,3.7c-23.3,7.2-23.6,29.2-6.4,33.6c5.1,1.3,10.4,0.6,15.2-1.6l22.7-10.5c9.1-4.2,20-0.5,24.7,8.4
		c3.4,6.4,7,14,16.2,21.6"/>
	<path class="st2" d="M140.5,677.3c-35.1,1.1-70.7,14.1-106.8,38c-20.3,13.7-9.8,38,12.6,34.9"/>
	<path class="st2" d="M156.7,646.5c-71.3,0-101.2,27.1-98.5,54.2"/>
	<circle cx="663.9" cy="331.9" r="11"/>
	<circle cx="928.8" cy="233.4" r="11"/>
</g>
</svg>
